<svg width="31" height="31" viewBox="0 0 31 31" fill="none" xmlns="http://www.w3.org/2000/svg">
<path d="M10.6667 28.7917C12.0014 28.7917 13.0833 27.7097 13.0833 26.375C13.0833 25.0403 12.0014 23.9583 10.6667 23.9583C9.33198 23.9583 8.25 25.0403 8.25 26.375C8.25 27.7097 9.33198 28.7917 10.6667 28.7917Z" stroke="#3F3F3F" stroke-width="2.8" stroke-linecap="round" stroke-linejoin="round"/>
<path d="M25.1667 28.7917C26.5014 28.7917 27.5833 27.7097 27.5833 26.375C27.5833 25.0403 26.5014 23.9583 25.1667 23.9583C23.832 23.9583 22.75 25.0403 22.75 26.375C22.75 27.7097 23.832 28.7917 25.1667 28.7917Z" stroke="#3F3F3F" stroke-width="2.8" stroke-linecap="round" stroke-linejoin="round"/>
<path d="M7.85123 8.25001H28.7916L26.7616 18.3879C26.6511 18.9442 26.3485 19.444 25.9067 19.7996C25.4649 20.1553 24.912 20.3442 24.345 20.3333H11.5729C10.9828 20.3383 10.4114 20.1273 9.96618 19.74C9.52101 19.3527 9.23292 18.8159 9.15623 18.2308L7.31956 4.31084C7.2434 3.72992 6.95878 3.19645 6.51868 2.80969C6.07858 2.42293 5.51296 2.20923 4.92706 2.20834H2.20831" stroke="#3F3F3F" stroke-width="2.8" stroke-linecap="round" stroke-linejoin="round"/>
</svg>
